<?xml version="1.0" encoding="UTF-8"?>
<svg id="Layer_1" data-name="Layer 1" xmlns="http://www.w3.org/2000/svg" viewBox="0 0 265.7 228.69">
  <defs>
    <style>
      .cls-1 {
        fill: #8af030;
      }
    </style>
  </defs>
  <g>
    <path class="cls-1" d="M223.19,121.42l-22.81,13.17c-.53.31-.53,1.08,0,1.38l22.75,13.14c.25.14.4.41.4.69v77.94c0,.44-.36.8-.8.8h-104.99c-.44,0-.8-.36-.8-.8V42.75c0-.41.31-.76.72-.8l116.94-10.96-.07.03-80.58,39.19c-.66.32-.57,1.29.14,1.49,10.14,2.82,20.28,5.62,30.43,8.43.28.08.49.3.56.58,2.53,10.07,5.04,20.12,7.57,30.17.18.72,1.15.83,1.49.17l40.47-79.96.04-.09-11.07,89.83c-.03.25-.18.47-.39.59h0Z"/>
    <path class="cls-1" d="M234.61.8v29.49c0,.44.36.8.8.8h29.49c.44,0,.8-.36.8-.8V.8c0-.44-.36-.8-.8-.8h-29.49c-.44,0-.8.36-.8.8ZM260.45,26.65h-20.61c-.44,0-.8-.36-.8-.8V5.24c0-.44.36-.8.8-.8h20.61c.44,0,.8.36.8.8v20.61c0,.44-.36.8-.8.8h0Z"/>
    <polygon class="cls-1" points="197.26 53.41 197.15 53.44 197.3 53.28 197.26 53.41"/>
    <polygon class="cls-1" points="197.39 53.37 197.23 53.52 197.26 53.41 197.39 53.37"/>
    <g>
      <polygon class="cls-1" points="234.74 18.5 234.61 18.5 234.61 15.54 234.74 18.5"/>
      <path class="cls-1" d="M253.07,30.33h0c-.02.43-.37.76-.8.76h-4.35c-.46,0-.82-.39-.8-.84v-.23c.04-.44.41-.78.85-.75l4.33.23c.44.02.78.4.76.84h0Z"/>
    </g>
  </g>
  <g>
    <path class="cls-1" d="M111.71,113.54l-110.91-.39c-.44,0-.8.44-.8.97v113.6c0,.54.36.97.8.97h110.91c.44,0,.8-.44.8-.97v-113.21c0-.54-.36-.98-.8-.98h0ZM106.59,220.72c0,.54-.36.97-.8.97H6.73c-.44,0-.8-.44-.8-.97v-99.57c0-.54.36-.98.8-.98l99.06.39c.44,0,.8.44.8.97v99.19Z"/>
    <path class="cls-1" d="M106.59,121.53v99.19c0,.54-.36.97-.8.97H6.73c-.44,0-.8-.44-.8-.97v-99.57c0-.54.36-.98.8-.98l99.06.39c.44,0,.8.44.8.97Z"/>
  </g>
  <path class="cls-1" d="M.01,51.22v56.12c0,.54.36.97.8.97h110.91c.44,0,.8-.44.8-.97v-63.5c0-.54-.36-.97-.8-.97L.81,50.25c-.44,0-.8.44-.8.97ZM105.79,101.31H6.73c-.44,0-.8-.44-.8-.97v-42.1c0-.54.36-.97.8-.97l99.06-7.38c.44,0,.8.44.8.97v49.48c0,.54-.36.97-.8.97h0Z"/>
</svg>